<mxfile host="app.diagrams.net" modified="2023-05-26T03:16:48.291Z" agent="Mozilla/5.0 (Macintosh; Intel Mac OS X 10_15_7) AppleWebKit/537.36 (KHTML, like Gecko) Chrome/113.0.0.0 Safari/537.36" etag="EQFsabJmvBsIZeZtW6Ju" version="21.2.3" type="device">
  <diagram name="ページ1" id="IEg0Emu4qmbsSPd5Q8Vj">
    <mxGraphModel dx="3474" dy="2719" grid="1" gridSize="10" guides="1" tooltips="1" connect="1" arrows="1" fold="1" page="1" pageScale="1" pageWidth="827" pageHeight="1169" math="0" shadow="0">
      <root>
        <mxCell id="0" />
        <mxCell id="1" parent="0" />
        <mxCell id="2JfHGFA0m8dNXVJQCZrc-6" value="" style="rounded=1;whiteSpace=wrap;html=1;fillColor=none;" vertex="1" parent="1">
          <mxGeometry x="50" y="30" width="320" height="220" as="geometry" />
        </mxCell>
        <mxCell id="2JfHGFA0m8dNXVJQCZrc-1" value="デジタルID（認証用）&lt;br&gt;＋&lt;br&gt;スコープ（認可用）" style="shape=cylinder3;whiteSpace=wrap;html=1;boundedLbl=1;backgroundOutline=1;size=15;" vertex="1" parent="1">
          <mxGeometry x="90" y="110" width="140" height="110" as="geometry" />
        </mxCell>
        <mxCell id="2JfHGFA0m8dNXVJQCZrc-2" value="認証・認可用DB" style="text;html=1;strokeColor=none;fillColor=none;align=center;verticalAlign=middle;whiteSpace=wrap;rounded=0;" vertex="1" parent="1">
          <mxGeometry x="110" y="110" width="110" height="30" as="geometry" />
        </mxCell>
        <mxCell id="2JfHGFA0m8dNXVJQCZrc-12" style="edgeStyle=orthogonalEdgeStyle;rounded=0;orthogonalLoop=1;jettySize=auto;html=1;exitX=0;exitY=0;exitDx=0;exitDy=25;exitPerimeter=0;entryX=1;entryY=0.5;entryDx=0;entryDy=0;entryPerimeter=0;" edge="1" parent="1" source="2JfHGFA0m8dNXVJQCZrc-8" target="2JfHGFA0m8dNXVJQCZrc-1">
          <mxGeometry relative="1" as="geometry" />
        </mxCell>
        <mxCell id="2JfHGFA0m8dNXVJQCZrc-8" value="" style="shape=cube;whiteSpace=wrap;html=1;boundedLbl=1;backgroundOutline=1;darkOpacity=0.05;darkOpacity2=0.1;size=10;" vertex="1" parent="1">
          <mxGeometry x="280" y="140" width="40" height="60" as="geometry" />
        </mxCell>
        <mxCell id="2JfHGFA0m8dNXVJQCZrc-10" value="OpenIDプロバイダー、&lt;br&gt;OAuth認可サーバー (Y)" style="text;html=1;strokeColor=none;fillColor=none;align=center;verticalAlign=middle;whiteSpace=wrap;rounded=0;" vertex="1" parent="1">
          <mxGeometry x="240" y="204" width="130" height="30" as="geometry" />
        </mxCell>
        <mxCell id="2JfHGFA0m8dNXVJQCZrc-14" style="edgeStyle=orthogonalEdgeStyle;rounded=0;orthogonalLoop=1;jettySize=auto;html=1;entryX=0;entryY=0;entryDx=40;entryDy=35;entryPerimeter=0;exitX=0;exitY=1;exitDx=0;exitDy=0;exitPerimeter=0;" edge="1" parent="1" source="2JfHGFA0m8dNXVJQCZrc-15" target="2JfHGFA0m8dNXVJQCZrc-8">
          <mxGeometry relative="1" as="geometry">
            <mxPoint x="420" y="180" as="sourcePoint" />
            <Array as="points">
              <mxPoint x="379" y="205" />
              <mxPoint x="379" y="175" />
            </Array>
          </mxGeometry>
        </mxCell>
        <mxCell id="2JfHGFA0m8dNXVJQCZrc-29" style="edgeStyle=orthogonalEdgeStyle;rounded=0;orthogonalLoop=1;jettySize=auto;html=1;entryX=0;entryY=0;entryDx=0;entryDy=15;entryPerimeter=0;exitX=0.5;exitY=0.5;exitDx=0;exitDy=0;exitPerimeter=0;" edge="1" parent="1" source="2JfHGFA0m8dNXVJQCZrc-15" target="2JfHGFA0m8dNXVJQCZrc-19">
          <mxGeometry relative="1" as="geometry">
            <mxPoint x="476" y="175" as="sourcePoint" />
          </mxGeometry>
        </mxCell>
        <mxCell id="2JfHGFA0m8dNXVJQCZrc-30" style="edgeStyle=orthogonalEdgeStyle;rounded=0;orthogonalLoop=1;jettySize=auto;html=1;exitX=0.5;exitY=0.5;exitDx=0;exitDy=0;exitPerimeter=0;entryX=0;entryY=0;entryDx=0;entryDy=25;entryPerimeter=0;" edge="1" parent="1" source="2JfHGFA0m8dNXVJQCZrc-15" target="2JfHGFA0m8dNXVJQCZrc-17">
          <mxGeometry relative="1" as="geometry" />
        </mxCell>
        <mxCell id="2JfHGFA0m8dNXVJQCZrc-31" style="edgeStyle=orthogonalEdgeStyle;rounded=0;orthogonalLoop=1;jettySize=auto;html=1;exitX=0.5;exitY=0.5;exitDx=0;exitDy=0;exitPerimeter=0;entryX=0;entryY=0;entryDx=0;entryDy=15;entryPerimeter=0;" edge="1" parent="1" source="2JfHGFA0m8dNXVJQCZrc-15" target="2JfHGFA0m8dNXVJQCZrc-24">
          <mxGeometry relative="1" as="geometry" />
        </mxCell>
        <mxCell id="2JfHGFA0m8dNXVJQCZrc-67" style="edgeStyle=orthogonalEdgeStyle;rounded=0;orthogonalLoop=1;jettySize=auto;html=1;exitX=1;exitY=1;exitDx=0;exitDy=0;exitPerimeter=0;entryX=0;entryY=0;entryDx=0;entryDy=15;entryPerimeter=0;" edge="1" parent="1" source="2JfHGFA0m8dNXVJQCZrc-15" target="2JfHGFA0m8dNXVJQCZrc-61">
          <mxGeometry relative="1" as="geometry">
            <Array as="points">
              <mxPoint x="490" y="205" />
              <mxPoint x="490" y="408" />
            </Array>
          </mxGeometry>
        </mxCell>
        <mxCell id="2JfHGFA0m8dNXVJQCZrc-15" value="Actor" style="shape=umlActor;verticalLabelPosition=bottom;verticalAlign=top;html=1;" vertex="1" parent="1">
          <mxGeometry x="438" y="145" width="30" height="60" as="geometry" />
        </mxCell>
        <mxCell id="2JfHGFA0m8dNXVJQCZrc-16" value="" style="rounded=1;whiteSpace=wrap;html=1;fillColor=none;" vertex="1" parent="1">
          <mxGeometry x="516" y="30" width="640" height="290" as="geometry" />
        </mxCell>
        <mxCell id="2JfHGFA0m8dNXVJQCZrc-43" style="edgeStyle=orthogonalEdgeStyle;rounded=0;orthogonalLoop=1;jettySize=auto;html=1;exitX=0;exitY=0;exitDx=40;exitDy=35;exitPerimeter=0;entryX=0;entryY=0.5;entryDx=0;entryDy=0;entryPerimeter=0;" edge="1" parent="1" source="2JfHGFA0m8dNXVJQCZrc-17" target="2JfHGFA0m8dNXVJQCZrc-41">
          <mxGeometry relative="1" as="geometry" />
        </mxCell>
        <mxCell id="2JfHGFA0m8dNXVJQCZrc-17" value="" style="shape=cube;whiteSpace=wrap;html=1;boundedLbl=1;backgroundOutline=1;darkOpacity=0.05;darkOpacity2=0.1;size=10;" vertex="1" parent="1">
          <mxGeometry x="619" y="220" width="40" height="60" as="geometry" />
        </mxCell>
        <mxCell id="2JfHGFA0m8dNXVJQCZrc-18" value="OpenIDプロバイダー、&lt;br&gt;OAuth認可サーバー (X)" style="text;html=1;strokeColor=none;fillColor=none;align=center;verticalAlign=middle;whiteSpace=wrap;rounded=0;" vertex="1" parent="1">
          <mxGeometry x="579" y="284" width="130" height="30" as="geometry" />
        </mxCell>
        <mxCell id="2JfHGFA0m8dNXVJQCZrc-27" style="edgeStyle=orthogonalEdgeStyle;rounded=0;orthogonalLoop=1;jettySize=auto;html=1;exitX=0;exitY=0;exitDx=30;exitDy=25;exitPerimeter=0;dashed=1;endArrow=open;endFill=0;" edge="1" parent="1" source="2JfHGFA0m8dNXVJQCZrc-19">
          <mxGeometry relative="1" as="geometry">
            <mxPoint x="648.9999999999998" y="220" as="targetPoint" />
          </mxGeometry>
        </mxCell>
        <mxCell id="2JfHGFA0m8dNXVJQCZrc-32" style="edgeStyle=orthogonalEdgeStyle;rounded=0;orthogonalLoop=1;jettySize=auto;html=1;exitX=0;exitY=0;exitDx=10;exitDy=0;exitPerimeter=0;entryX=0;entryY=0;entryDx=15;entryDy=0;entryPerimeter=0;dashed=1;endArrow=open;endFill=0;" edge="1" parent="1" source="2JfHGFA0m8dNXVJQCZrc-19" target="2JfHGFA0m8dNXVJQCZrc-8">
          <mxGeometry relative="1" as="geometry" />
        </mxCell>
        <mxCell id="2JfHGFA0m8dNXVJQCZrc-19" value="" style="shape=cube;whiteSpace=wrap;html=1;boundedLbl=1;backgroundOutline=1;darkOpacity=0.05;darkOpacity2=0.1;size=10;" vertex="1" parent="1">
          <mxGeometry x="589" y="60" width="30" height="40" as="geometry" />
        </mxCell>
        <mxCell id="2JfHGFA0m8dNXVJQCZrc-20" value="アプリA" style="text;html=1;strokeColor=none;fillColor=none;align=center;verticalAlign=middle;whiteSpace=wrap;rounded=0;" vertex="1" parent="1">
          <mxGeometry x="574" y="37" width="60" height="30" as="geometry" />
        </mxCell>
        <mxCell id="2JfHGFA0m8dNXVJQCZrc-26" style="edgeStyle=orthogonalEdgeStyle;rounded=0;orthogonalLoop=1;jettySize=auto;html=1;exitX=0;exitY=0;exitDx=30;exitDy=25;exitPerimeter=0;entryX=0;entryY=0;entryDx=30;entryDy=0;entryPerimeter=0;dashed=1;endArrow=open;endFill=0;" edge="1" parent="1" source="2JfHGFA0m8dNXVJQCZrc-24" target="2JfHGFA0m8dNXVJQCZrc-17">
          <mxGeometry relative="1" as="geometry" />
        </mxCell>
        <mxCell id="2JfHGFA0m8dNXVJQCZrc-34" style="edgeStyle=orthogonalEdgeStyle;rounded=0;orthogonalLoop=1;jettySize=auto;html=1;exitX=0;exitY=0;exitDx=10;exitDy=0;exitPerimeter=0;entryX=0;entryY=0;entryDx=15;entryDy=0;entryPerimeter=0;dashed=1;endArrow=open;endFill=0;" edge="1" parent="1" source="2JfHGFA0m8dNXVJQCZrc-24" target="2JfHGFA0m8dNXVJQCZrc-8">
          <mxGeometry relative="1" as="geometry" />
        </mxCell>
        <mxCell id="2JfHGFA0m8dNXVJQCZrc-24" value="" style="shape=cube;whiteSpace=wrap;html=1;boundedLbl=1;backgroundOutline=1;darkOpacity=0.05;darkOpacity2=0.1;size=10;" vertex="1" parent="1">
          <mxGeometry x="589" y="129" width="30" height="40" as="geometry" />
        </mxCell>
        <mxCell id="2JfHGFA0m8dNXVJQCZrc-25" value="アプリB" style="text;html=1;strokeColor=none;fillColor=none;align=center;verticalAlign=middle;whiteSpace=wrap;rounded=0;" vertex="1" parent="1">
          <mxGeometry x="574" y="106" width="60" height="30" as="geometry" />
        </mxCell>
        <mxCell id="2JfHGFA0m8dNXVJQCZrc-35" value="リダイレクト" style="text;html=1;strokeColor=none;fillColor=none;align=center;verticalAlign=middle;whiteSpace=wrap;rounded=0;" vertex="1" parent="1">
          <mxGeometry x="374" y="14" width="100" height="30" as="geometry" />
        </mxCell>
        <mxCell id="2JfHGFA0m8dNXVJQCZrc-36" value="OIDC、OAuth" style="text;html=1;strokeColor=none;fillColor=none;align=center;verticalAlign=middle;whiteSpace=wrap;rounded=0;" vertex="1" parent="1">
          <mxGeometry x="340" y="150" width="80" height="30" as="geometry" />
        </mxCell>
        <mxCell id="2JfHGFA0m8dNXVJQCZrc-37" value="OIDC、OAuth" style="text;html=1;strokeColor=none;fillColor=none;align=center;verticalAlign=middle;whiteSpace=wrap;rounded=0;" vertex="1" parent="1">
          <mxGeometry x="530" y="240" width="80" height="30" as="geometry" />
        </mxCell>
        <mxCell id="2JfHGFA0m8dNXVJQCZrc-38" value="チケット" style="text;html=1;strokeColor=none;fillColor=none;align=center;verticalAlign=middle;whiteSpace=wrap;rounded=0;" vertex="1" parent="1">
          <mxGeometry x="525" y="50" width="60" height="30" as="geometry" />
        </mxCell>
        <mxCell id="2JfHGFA0m8dNXVJQCZrc-41" value="デジタルID（認証用）&lt;br&gt;＋&lt;br&gt;スコープ（認可用）" style="shape=cylinder3;whiteSpace=wrap;html=1;boundedLbl=1;backgroundOutline=1;size=15;" vertex="1" parent="1">
          <mxGeometry x="755" y="66" width="140" height="110" as="geometry" />
        </mxCell>
        <mxCell id="2JfHGFA0m8dNXVJQCZrc-42" value="認証・認可用DB" style="text;html=1;strokeColor=none;fillColor=none;align=center;verticalAlign=middle;whiteSpace=wrap;rounded=0;" vertex="1" parent="1">
          <mxGeometry x="775" y="66" width="110" height="30" as="geometry" />
        </mxCell>
        <mxCell id="2JfHGFA0m8dNXVJQCZrc-49" style="edgeStyle=orthogonalEdgeStyle;rounded=0;orthogonalLoop=1;jettySize=auto;html=1;exitX=0.5;exitY=0.5;exitDx=0;exitDy=0;exitPerimeter=0;entryX=0;entryY=0;entryDx=30;entryDy=25;entryPerimeter=0;" edge="1" parent="1" source="2JfHGFA0m8dNXVJQCZrc-44" target="2JfHGFA0m8dNXVJQCZrc-45">
          <mxGeometry relative="1" as="geometry" />
        </mxCell>
        <mxCell id="2JfHGFA0m8dNXVJQCZrc-50" style="edgeStyle=orthogonalEdgeStyle;rounded=0;orthogonalLoop=1;jettySize=auto;html=1;exitX=0.5;exitY=0.5;exitDx=0;exitDy=0;exitPerimeter=0;entryX=0;entryY=0;entryDx=30;entryDy=25;entryPerimeter=0;" edge="1" parent="1" source="2JfHGFA0m8dNXVJQCZrc-44" target="2JfHGFA0m8dNXVJQCZrc-47">
          <mxGeometry relative="1" as="geometry" />
        </mxCell>
        <mxCell id="2JfHGFA0m8dNXVJQCZrc-53" style="edgeStyle=orthogonalEdgeStyle;rounded=0;orthogonalLoop=1;jettySize=auto;html=1;exitX=0.5;exitY=0.5;exitDx=0;exitDy=0;exitPerimeter=0;entryX=0;entryY=0;entryDx=40;entryDy=35;entryPerimeter=0;" edge="1" parent="1" source="2JfHGFA0m8dNXVJQCZrc-44" target="2JfHGFA0m8dNXVJQCZrc-51">
          <mxGeometry relative="1" as="geometry">
            <mxPoint x="995" y="194" as="targetPoint" />
          </mxGeometry>
        </mxCell>
        <mxCell id="2JfHGFA0m8dNXVJQCZrc-60" style="edgeStyle=orthogonalEdgeStyle;rounded=0;orthogonalLoop=1;jettySize=auto;html=1;exitX=1;exitY=1;exitDx=0;exitDy=0;exitPerimeter=0;entryX=0;entryY=0;entryDx=40;entryDy=35;entryPerimeter=0;" edge="1" parent="1" source="2JfHGFA0m8dNXVJQCZrc-44" target="2JfHGFA0m8dNXVJQCZrc-57">
          <mxGeometry relative="1" as="geometry">
            <Array as="points">
              <mxPoint x="1140" y="210" />
              <mxPoint x="1140" y="255" />
            </Array>
          </mxGeometry>
        </mxCell>
        <mxCell id="2JfHGFA0m8dNXVJQCZrc-63" style="edgeStyle=orthogonalEdgeStyle;rounded=0;orthogonalLoop=1;jettySize=auto;html=1;exitX=1;exitY=1;exitDx=0;exitDy=0;exitPerimeter=0;entryX=0;entryY=0;entryDx=30;entryDy=25;entryPerimeter=0;" edge="1" parent="1" source="2JfHGFA0m8dNXVJQCZrc-44" target="2JfHGFA0m8dNXVJQCZrc-61">
          <mxGeometry relative="1" as="geometry">
            <Array as="points">
              <mxPoint x="1140" y="210" />
              <mxPoint x="1140" y="418" />
            </Array>
          </mxGeometry>
        </mxCell>
        <mxCell id="2JfHGFA0m8dNXVJQCZrc-44" value="Actor" style="shape=umlActor;verticalLabelPosition=bottom;verticalAlign=top;html=1;" vertex="1" parent="1">
          <mxGeometry x="1089" y="150" width="30" height="60" as="geometry" />
        </mxCell>
        <mxCell id="2JfHGFA0m8dNXVJQCZrc-74" style="edgeStyle=orthogonalEdgeStyle;rounded=0;orthogonalLoop=1;jettySize=auto;html=1;exitX=0;exitY=0;exitDx=0;exitDy=15;exitPerimeter=0;entryX=0;entryY=0;entryDx=15;entryDy=0;entryPerimeter=0;dashed=1;endArrow=open;endFill=0;" edge="1" parent="1" source="2JfHGFA0m8dNXVJQCZrc-45" target="2JfHGFA0m8dNXVJQCZrc-51">
          <mxGeometry relative="1" as="geometry" />
        </mxCell>
        <mxCell id="2JfHGFA0m8dNXVJQCZrc-45" value="" style="shape=cube;whiteSpace=wrap;html=1;boundedLbl=1;backgroundOutline=1;darkOpacity=0.05;darkOpacity2=0.1;size=10;" vertex="1" parent="1">
          <mxGeometry x="1014" y="57" width="30" height="40" as="geometry" />
        </mxCell>
        <mxCell id="2JfHGFA0m8dNXVJQCZrc-46" value="アプリC" style="text;html=1;strokeColor=none;fillColor=none;align=center;verticalAlign=middle;whiteSpace=wrap;rounded=0;" vertex="1" parent="1">
          <mxGeometry x="999" y="34" width="60" height="32" as="geometry" />
        </mxCell>
        <mxCell id="2JfHGFA0m8dNXVJQCZrc-75" style="edgeStyle=orthogonalEdgeStyle;rounded=0;orthogonalLoop=1;jettySize=auto;html=1;exitX=0;exitY=0;exitDx=0;exitDy=15;exitPerimeter=0;entryX=0;entryY=0;entryDx=35;entryDy=5;entryPerimeter=0;dashed=1;endArrow=open;endFill=0;" edge="1" parent="1" source="2JfHGFA0m8dNXVJQCZrc-47" target="2JfHGFA0m8dNXVJQCZrc-51">
          <mxGeometry relative="1" as="geometry" />
        </mxCell>
        <mxCell id="2JfHGFA0m8dNXVJQCZrc-47" value="" style="shape=cube;whiteSpace=wrap;html=1;boundedLbl=1;backgroundOutline=1;darkOpacity=0.05;darkOpacity2=0.1;size=10;" vertex="1" parent="1">
          <mxGeometry x="1014" y="126" width="30" height="40" as="geometry" />
        </mxCell>
        <mxCell id="2JfHGFA0m8dNXVJQCZrc-48" value="アプリD" style="text;html=1;strokeColor=none;fillColor=none;align=center;verticalAlign=middle;whiteSpace=wrap;rounded=0;" vertex="1" parent="1">
          <mxGeometry x="999" y="103" width="60" height="30" as="geometry" />
        </mxCell>
        <mxCell id="2JfHGFA0m8dNXVJQCZrc-56" style="edgeStyle=orthogonalEdgeStyle;rounded=0;orthogonalLoop=1;jettySize=auto;html=1;exitX=0;exitY=0;exitDx=0;exitDy=25;exitPerimeter=0;entryX=1;entryY=0;entryDx=0;entryDy=75;entryPerimeter=0;" edge="1" parent="1" source="2JfHGFA0m8dNXVJQCZrc-51" target="2JfHGFA0m8dNXVJQCZrc-41">
          <mxGeometry relative="1" as="geometry">
            <mxPoint x="925" y="194" as="sourcePoint" />
          </mxGeometry>
        </mxCell>
        <mxCell id="2JfHGFA0m8dNXVJQCZrc-51" value="" style="shape=cube;whiteSpace=wrap;html=1;boundedLbl=1;backgroundOutline=1;darkOpacity=0.05;darkOpacity2=0.1;size=10;" vertex="1" parent="1">
          <mxGeometry x="936" y="159" width="40" height="60" as="geometry" />
        </mxCell>
        <mxCell id="2JfHGFA0m8dNXVJQCZrc-52" value="LDAPサーバー" style="text;html=1;strokeColor=none;fillColor=none;align=center;verticalAlign=middle;whiteSpace=wrap;rounded=0;" vertex="1" parent="1">
          <mxGeometry x="917" y="213" width="94" height="30" as="geometry" />
        </mxCell>
        <mxCell id="2JfHGFA0m8dNXVJQCZrc-54" value="ケルベロス認証" style="text;html=1;strokeColor=none;fillColor=none;align=center;verticalAlign=middle;whiteSpace=wrap;rounded=0;" vertex="1" parent="1">
          <mxGeometry x="985" y="189" width="94" height="30" as="geometry" />
        </mxCell>
        <mxCell id="2JfHGFA0m8dNXVJQCZrc-55" value="チケット" style="text;html=1;strokeColor=none;fillColor=none;align=center;verticalAlign=middle;whiteSpace=wrap;rounded=0;" vertex="1" parent="1">
          <mxGeometry x="1065" y="85" width="58" height="30" as="geometry" />
        </mxCell>
        <mxCell id="2JfHGFA0m8dNXVJQCZrc-69" style="edgeStyle=orthogonalEdgeStyle;rounded=0;orthogonalLoop=1;jettySize=auto;html=1;exitX=0;exitY=0;exitDx=15;exitDy=0;exitPerimeter=0;" edge="1" parent="1" source="2JfHGFA0m8dNXVJQCZrc-57" target="2JfHGFA0m8dNXVJQCZrc-41">
          <mxGeometry relative="1" as="geometry" />
        </mxCell>
        <mxCell id="2JfHGFA0m8dNXVJQCZrc-57" value="" style="shape=cube;whiteSpace=wrap;html=1;boundedLbl=1;backgroundOutline=1;darkOpacity=0.05;darkOpacity2=0.1;size=10;" vertex="1" parent="1">
          <mxGeometry x="840" y="220" width="40" height="60" as="geometry" />
        </mxCell>
        <mxCell id="2JfHGFA0m8dNXVJQCZrc-58" value="Identityプロバイダー（IdP）" style="text;html=1;strokeColor=none;fillColor=none;align=center;verticalAlign=middle;whiteSpace=wrap;rounded=0;" vertex="1" parent="1">
          <mxGeometry x="810" y="284" width="120" height="30" as="geometry" />
        </mxCell>
        <mxCell id="2JfHGFA0m8dNXVJQCZrc-65" style="edgeStyle=orthogonalEdgeStyle;rounded=0;orthogonalLoop=1;jettySize=auto;html=1;exitX=0;exitY=0;exitDx=30;exitDy=10;exitPerimeter=0;entryX=0;entryY=0;entryDx=25;entryDy=60;entryPerimeter=0;dashed=1;endArrow=open;endFill=0;" edge="1" parent="1" source="2JfHGFA0m8dNXVJQCZrc-61" target="2JfHGFA0m8dNXVJQCZrc-57">
          <mxGeometry relative="1" as="geometry" />
        </mxCell>
        <mxCell id="2JfHGFA0m8dNXVJQCZrc-66" style="edgeStyle=orthogonalEdgeStyle;rounded=0;orthogonalLoop=1;jettySize=auto;html=1;exitX=0;exitY=0;exitDx=10;exitDy=0;exitPerimeter=0;entryX=0.983;entryY=0.756;entryDx=0;entryDy=0;entryPerimeter=0;dashed=1;endArrow=open;endFill=0;" edge="1" parent="1" source="2JfHGFA0m8dNXVJQCZrc-61" target="2JfHGFA0m8dNXVJQCZrc-17">
          <mxGeometry relative="1" as="geometry" />
        </mxCell>
        <mxCell id="2JfHGFA0m8dNXVJQCZrc-61" value="" style="shape=cube;whiteSpace=wrap;html=1;boundedLbl=1;backgroundOutline=1;darkOpacity=0.05;darkOpacity2=0.1;size=10;" vertex="1" parent="1">
          <mxGeometry x="782" y="393" width="30" height="40" as="geometry" />
        </mxCell>
        <mxCell id="2JfHGFA0m8dNXVJQCZrc-62" value="クラウドサービス" style="text;html=1;strokeColor=none;fillColor=none;align=center;verticalAlign=middle;whiteSpace=wrap;rounded=0;" vertex="1" parent="1">
          <mxGeometry x="755" y="430" width="103" height="32" as="geometry" />
        </mxCell>
        <mxCell id="2JfHGFA0m8dNXVJQCZrc-64" value="SAML" style="text;html=1;strokeColor=none;fillColor=none;align=center;verticalAlign=middle;whiteSpace=wrap;rounded=0;" vertex="1" parent="1">
          <mxGeometry x="942" y="251" width="94" height="30" as="geometry" />
        </mxCell>
        <mxCell id="2JfHGFA0m8dNXVJQCZrc-70" value="X" style="text;html=1;strokeColor=none;fillColor=none;align=center;verticalAlign=middle;whiteSpace=wrap;rounded=0;" vertex="1" parent="1">
          <mxGeometry x="614" y="243" width="60" height="30" as="geometry" />
        </mxCell>
        <mxCell id="2JfHGFA0m8dNXVJQCZrc-71" value="Y" style="text;html=1;strokeColor=none;fillColor=none;align=center;verticalAlign=middle;whiteSpace=wrap;rounded=0;" vertex="1" parent="1">
          <mxGeometry x="275" y="160" width="60" height="30" as="geometry" />
        </mxCell>
        <mxCell id="2JfHGFA0m8dNXVJQCZrc-76" value="Facebook等外部" style="text;html=1;strokeColor=none;fillColor=none;align=center;verticalAlign=middle;whiteSpace=wrap;rounded=0;" vertex="1" parent="1">
          <mxGeometry x="110" y="30" width="190" height="30" as="geometry" />
        </mxCell>
        <mxCell id="2JfHGFA0m8dNXVJQCZrc-77" value="自社内部" style="text;html=1;strokeColor=none;fillColor=none;align=center;verticalAlign=middle;whiteSpace=wrap;rounded=0;" vertex="1" parent="1">
          <mxGeometry x="740" y="27" width="190" height="30" as="geometry" />
        </mxCell>
        <mxCell id="2JfHGFA0m8dNXVJQCZrc-78" value="" style="rounded=0;whiteSpace=wrap;html=1;fillColor=none;dashed=1;dashPattern=1 1;strokeWidth=1;" vertex="1" parent="1">
          <mxGeometry x="-20" y="-16" width="820" height="486" as="geometry" />
        </mxCell>
        <mxCell id="2JfHGFA0m8dNXVJQCZrc-80" value="CIAM（Consumer Identity and Access Management）" style="text;html=1;strokeColor=none;fillColor=none;align=center;verticalAlign=middle;whiteSpace=wrap;rounded=0;" vertex="1" parent="1">
          <mxGeometry x="280" y="-20" width="320" height="30" as="geometry" />
        </mxCell>
        <mxCell id="2JfHGFA0m8dNXVJQCZrc-81" value="" style="rounded=0;whiteSpace=wrap;html=1;fillColor=none;dashed=1;dashPattern=1 1;strokeWidth=1;" vertex="1" parent="1">
          <mxGeometry x="805" y="-16" width="405" height="486" as="geometry" />
        </mxCell>
        <mxCell id="2JfHGFA0m8dNXVJQCZrc-82" value="EIAM（EnterPrise Identity and Access Management）" style="text;html=1;strokeColor=none;fillColor=none;align=center;verticalAlign=middle;whiteSpace=wrap;rounded=0;" vertex="1" parent="1">
          <mxGeometry x="847.5" y="-20" width="320" height="30" as="geometry" />
        </mxCell>
        <mxCell id="2JfHGFA0m8dNXVJQCZrc-83" value="" style="shape=callout;whiteSpace=wrap;html=1;perimeter=calloutPerimeter;position2=0.46;rotation=-180;" vertex="1" parent="1">
          <mxGeometry x="516" y="309" width="206" height="92" as="geometry" />
        </mxCell>
        <mxCell id="2JfHGFA0m8dNXVJQCZrc-84" value="アプリAで使うスコープ値、Bで使うスコープ値、のように任意のスコープを設計して返却できる（独自の認可制御処理に使える）" style="text;html=1;strokeColor=none;fillColor=none;align=center;verticalAlign=middle;whiteSpace=wrap;rounded=0;" vertex="1" parent="1">
          <mxGeometry x="520" y="356" width="194" height="30" as="geometry" />
        </mxCell>
        <mxCell id="2JfHGFA0m8dNXVJQCZrc-85" value="" style="shape=callout;whiteSpace=wrap;html=1;perimeter=calloutPerimeter;position2=0.46;rotation=-180;" vertex="1" parent="1">
          <mxGeometry x="164" y="234" width="206" height="92" as="geometry" />
        </mxCell>
        <mxCell id="2JfHGFA0m8dNXVJQCZrc-86" value="こちらが返却するスコープ値は基本的にFacebook等外部が定めたものだけ" style="text;html=1;strokeColor=none;fillColor=none;align=center;verticalAlign=middle;whiteSpace=wrap;rounded=0;" vertex="1" parent="1">
          <mxGeometry x="171" y="284" width="194" height="30" as="geometry" />
        </mxCell>
        <mxCell id="2JfHGFA0m8dNXVJQCZrc-87" value="デジタルID（Identity）" style="swimlane;fontStyle=0;childLayout=stackLayout;horizontal=1;startSize=26;fillColor=none;horizontalStack=0;resizeParent=1;resizeParentMax=0;resizeLast=0;collapsible=1;marginBottom=0;whiteSpace=wrap;html=1;" vertex="1" parent="1">
          <mxGeometry x="396" y="-191" width="140" height="104" as="geometry">
            <mxRectangle x="440" y="-280" width="160" height="30" as="alternateBounds" />
          </mxGeometry>
        </mxCell>
        <mxCell id="2JfHGFA0m8dNXVJQCZrc-88" value="Attribute1" style="text;strokeColor=none;fillColor=none;align=left;verticalAlign=top;spacingLeft=4;spacingRight=4;overflow=hidden;rotatable=0;points=[[0,0.5],[1,0.5]];portConstraint=eastwest;whiteSpace=wrap;html=1;" vertex="1" parent="2JfHGFA0m8dNXVJQCZrc-87">
          <mxGeometry y="26" width="140" height="26" as="geometry" />
        </mxCell>
        <mxCell id="2JfHGFA0m8dNXVJQCZrc-89" value="Attribute2" style="text;strokeColor=none;fillColor=none;align=left;verticalAlign=top;spacingLeft=4;spacingRight=4;overflow=hidden;rotatable=0;points=[[0,0.5],[1,0.5]];portConstraint=eastwest;whiteSpace=wrap;html=1;" vertex="1" parent="2JfHGFA0m8dNXVJQCZrc-87">
          <mxGeometry y="52" width="140" height="26" as="geometry" />
        </mxCell>
        <mxCell id="2JfHGFA0m8dNXVJQCZrc-90" value="Attribute3" style="text;strokeColor=none;fillColor=none;align=left;verticalAlign=top;spacingLeft=4;spacingRight=4;overflow=hidden;rotatable=0;points=[[0,0.5],[1,0.5]];portConstraint=eastwest;whiteSpace=wrap;html=1;" vertex="1" parent="2JfHGFA0m8dNXVJQCZrc-87">
          <mxGeometry y="78" width="140" height="26" as="geometry" />
        </mxCell>
        <mxCell id="2JfHGFA0m8dNXVJQCZrc-93" value="&lt;div style=&quot;text-align: left;&quot;&gt;&lt;ul&gt;&lt;li&gt;&lt;span style=&quot;background-color: initial;&quot;&gt;デジタルIDとは、デジタルの世界におけるユーザ、モノ、組織などの管理単位で、属性（Attribute）の集合体である。&lt;br&gt;&lt;br&gt;&lt;/span&gt;&lt;/li&gt;&lt;li&gt;&lt;span style=&quot;background-color: initial;&quot;&gt;デジタルIDを一意に特定する属性をIdentifierと呼ぶ。&lt;br&gt;&lt;br&gt;&lt;/span&gt;&lt;/li&gt;&lt;li&gt;&lt;span style=&quot;background-color: initial;&quot;&gt;認証に使用する属性をクレデンシャルと呼ぶ。&lt;/span&gt;&lt;/li&gt;&lt;/ul&gt;&lt;/div&gt;" style="text;html=1;strokeColor=none;fillColor=none;align=center;verticalAlign=top;whiteSpace=wrap;rounded=0;" vertex="1" parent="1">
          <mxGeometry x="536" y="-201" width="330" height="140" as="geometry" />
        </mxCell>
      </root>
    </mxGraphModel>
  </diagram>
</mxfile>
